<svg width="24" height="24" viewBox="0 0 24 24" fill="none" xmlns="http://www.w3.org/2000/svg">
<g clip-path="url(#clip0_113_3713)">
<path d="M0.499996 20.769V23.375C0.499996 23.5076 0.552675 23.6348 0.646443 23.7286C0.740211 23.8223 0.867388 23.875 0.999996 23.875H9.648C9.70235 23.875 9.75523 23.8573 9.79869 23.8247C9.84215 23.7921 9.87384 23.7462 9.889 23.694L11.519 17.988C11.5582 17.8926 11.6248 17.8111 11.7105 17.7536C11.7961 17.6962 11.8969 17.6656 12 17.6656C12.1031 17.6656 12.2039 17.6962 12.2895 17.7536C12.3752 17.8111 12.4418 17.8926 12.481 17.988L14.111 23.694C14.1262 23.7462 14.1578 23.7921 14.2013 23.8247C14.2448 23.8573 14.2976 23.875 14.352 23.875H23C23.1326 23.875 23.2598 23.8223 23.3535 23.7286C23.4473 23.6348 23.5 23.5076 23.5 23.375V20.769C23.5032 20.387 23.4175 20.0096 23.2497 19.6664C23.0819 19.3233 22.8365 19.0239 22.533 18.792C20.2578 17.1936 17.5928 16.2403 14.82 16.033C14.7652 16.0268 14.714 16.0027 14.6743 15.9644C14.6347 15.9262 14.6088 15.8758 14.6007 15.8213C14.5926 15.7668 14.6027 15.7111 14.6296 15.6629C14.6564 15.6148 14.6984 15.5768 14.749 15.555C16.0091 15.0169 17.0836 14.1208 17.8393 12.9778C18.5949 11.8348 18.9985 10.4952 19 9.125V7.125C19 5.26848 18.2625 3.48801 16.9497 2.17525C15.637 0.862498 13.8565 0.125 12 0.125C10.1435 0.125 8.363 0.862498 7.05025 2.17525C5.73749 3.48801 5 5.26848 5 7.125V9.125C5.00149 10.4952 5.40508 11.8348 6.16073 12.9778C6.91639 14.1208 7.99088 15.0169 9.251 15.555C9.30162 15.5768 9.34361 15.6148 9.37043 15.6629C9.39725 15.7111 9.4074 15.7668 9.3993 15.8213C9.3912 15.8758 9.36531 15.9262 9.32564 15.9644C9.28598 16.0027 9.23478 16.0268 9.18 16.033C6.40724 16.2403 3.74216 17.1936 1.467 18.792C1.1635 19.0239 0.918125 19.3233 0.750292 19.6664C0.582459 20.0096 0.496768 20.387 0.499996 20.769ZM7 9.125V8.175C7.00022 8.10997 7.02568 8.04756 7.07101 8.00093C7.11634 7.95429 7.178 7.92707 7.243 7.925C8.96264 7.95721 10.6338 7.35446 11.937 6.232C11.9548 6.21755 11.9771 6.20966 12 6.20966C12.0229 6.20966 12.0452 6.21755 12.063 6.232C13.3664 7.35416 15.0374 7.95718 16.757 7.926C16.822 7.92807 16.8837 7.95529 16.929 8.00193C16.9743 8.04856 16.9998 8.11097 17 8.176V9.125C17 10.4511 16.4732 11.7229 15.5355 12.6605C14.5978 13.5982 13.3261 14.125 12 14.125C10.6739 14.125 9.40214 13.5982 8.46446 12.6605C7.52678 11.7229 7 10.4511 7 9.125Z" fill="#6C7E93"/>
<path d="M14 10.375C14.5523 10.375 15 9.92728 15 9.375C15 8.82272 14.5523 8.375 14 8.375C13.4477 8.375 13 8.82272 13 9.375C13 9.92728 13.4477 10.375 14 10.375Z" fill="#6C7E93"/>
<path d="M10 10.375C10.5523 10.375 11 9.92728 11 9.375C11 8.82272 10.5523 8.375 10 8.375C9.44772 8.375 9 8.82272 9 9.375C9 9.92728 9.44772 10.375 10 10.375Z" fill="#6C7E93"/>
<path d="M12.082 12.994C12.3742 12.995 12.665 12.9529 12.945 12.869C13.0962 12.8238 13.2423 12.7632 13.381 12.688C13.5052 12.6203 13.6035 12.5132 13.6603 12.3837C13.7171 12.2541 13.7293 12.1093 13.695 11.972C13.6607 11.8348 13.5818 11.7128 13.4707 11.6252C13.3595 11.5376 13.2225 11.4893 13.081 11.488H11.081C10.9395 11.4893 10.8025 11.5376 10.6913 11.6252C10.5802 11.7128 10.5013 11.8348 10.467 11.972C10.4327 12.1093 10.4449 12.2541 10.5017 12.3837C10.5585 12.5132 10.6568 12.6203 10.781 12.688C10.9195 12.7627 11.0652 12.823 11.216 12.868C11.4972 12.9524 11.7894 12.9948 12.083 12.994H12.082Z" fill="#6C7E93"/>
</g>
<defs>
<clipPath id="clip0_113_3713">
<rect width="24" height="24" fill="white"/>
</clipPath>
</defs>
</svg>
