<svg width="24" height="24" viewBox="0 0 24 24" fill="none" xmlns="http://www.w3.org/2000/svg">
<g clip-path="url(#clip0_113_3681)">
<path d="M3.75 7.5C3.75 7.69891 3.82902 7.88968 3.96967 8.03033C4.11032 8.17098 4.30109 8.25 4.5 8.25H4.913C4.97533 8.24998 5.03542 8.27326 5.08149 8.31525C5.12755 8.35724 5.15627 8.41493 5.162 8.477C5.173 8.596 5.185 8.717 5.201 8.84C5.20892 8.90519 5.19096 8.97089 5.151 9.023C4.8676 9.41989 4.72664 9.90092 4.751 10.388C4.74591 10.8864 4.87732 11.3767 5.13098 11.8057C5.38463 12.2348 5.75087 12.5862 6.19 12.822C6.22758 12.839 6.26044 12.8649 6.28571 12.8975C6.31098 12.9301 6.3279 12.9684 6.335 13.009C6.845 16.057 10.355 18 12.021 18C13.687 18 17.196 16.057 17.708 13.008C17.7145 12.9676 17.731 12.9294 17.756 12.8969C17.781 12.8645 17.8136 12.8387 17.851 12.822C18.2901 12.5865 18.6564 12.2352 18.9101 11.8063C19.1637 11.3774 19.2951 10.8873 19.29 10.389C19.3149 9.90154 19.1739 9.42003 18.89 9.023C18.85 8.97089 18.8321 8.90519 18.84 8.84C18.856 8.717 18.868 8.596 18.879 8.476C18.885 8.41411 18.9138 8.35667 18.9598 8.31488C19.0059 8.27309 19.0658 8.24996 19.128 8.25H19.521C19.7199 8.25 19.9107 8.17098 20.0513 8.03033C20.192 7.88968 20.271 7.69891 20.271 7.5C20.271 7.30109 20.192 7.11032 20.0513 6.96967C19.9107 6.82902 19.7199 6.75 19.521 6.75H19.181C19.1174 6.74989 19.0563 6.72568 19.0099 6.68225C18.9635 6.63882 18.9353 6.57941 18.931 6.516C18.905 5.1745 18.4403 3.87844 17.608 2.826C17.1186 2.25711 16.5112 1.80156 15.828 1.491C15.795 1.47542 15.759 1.46734 15.7225 1.46734C15.686 1.46734 15.65 1.47542 15.617 1.491C15.5838 1.50626 15.5544 1.52857 15.5307 1.55637C15.5071 1.58418 15.4898 1.61681 15.48 1.652L14.223 6.2C14.1791 6.35806 14.0846 6.49739 13.9541 6.59671C13.8235 6.69603 13.664 6.74987 13.5 6.75C13.4324 6.74974 13.3652 6.74067 13.3 6.723C13.1084 6.66976 12.9457 6.54268 12.8476 6.36964C12.7496 6.19661 12.7242 5.99175 12.777 5.8L14.177 0.734C14.1938 0.674669 14.1881 0.611217 14.161 0.555841C14.1338 0.500465 14.0872 0.457071 14.03 0.434C13.3934 0.16495 12.7119 0.0177362 12.021 0C11.3286 0.0180607 10.6458 0.165956 10.008 0.436C9.95049 0.458703 9.90348 0.501993 9.87612 0.557445C9.84876 0.612898 9.84302 0.676545 9.86 0.736L11.225 5.808C11.2506 5.90314 11.2571 6.00239 11.2443 6.10007C11.2315 6.19775 11.1996 6.29196 11.1504 6.3773C11.1012 6.46264 11.0356 6.53745 10.9575 6.59745C10.8793 6.65745 10.7902 6.70148 10.695 6.727C10.6299 6.74485 10.5625 6.7536 10.495 6.753C10.3311 6.75187 10.1721 6.69723 10.0421 6.59741C9.91217 6.49759 9.81836 6.35804 9.775 6.2L8.554 1.656C8.54406 1.62104 8.52658 1.58869 8.5028 1.5612C8.47902 1.53372 8.44952 1.51177 8.41635 1.4969C8.38319 1.48204 8.34717 1.47461 8.31083 1.47515C8.27449 1.47568 8.23871 1.48416 8.206 1.5C7.52606 1.80902 6.92117 2.26175 6.433 2.827C5.60031 3.87889 5.13525 5.17467 5.109 6.516C5.10517 6.5794 5.07726 6.63895 5.03097 6.68245C4.98468 6.72595 4.92352 6.75012 4.86 6.75H4.5C4.30109 6.75 4.11032 6.82902 3.96967 6.96967C3.82902 7.11032 3.75 7.30109 3.75 7.5ZM17.28 9.127C17.2541 9.28535 17.2796 9.44782 17.3526 9.59068C17.4257 9.73353 17.5425 9.84928 17.686 9.921C17.7726 10.0499 17.8083 10.2063 17.786 10.36C17.7935 10.5757 17.7462 10.7897 17.6484 10.9821C17.5507 11.1745 17.4057 11.3389 17.227 11.46C16.9665 11.5781 16.739 11.7584 16.5646 11.9851C16.3903 12.2118 16.2743 12.4779 16.227 12.76C15.849 15.009 13.051 16.499 12.019 16.499C10.987 16.499 8.19 15.01 7.812 12.76C7.76444 12.478 7.6484 12.212 7.47404 11.9854C7.29968 11.7587 7.07235 11.5783 6.812 11.46C6.63361 11.3387 6.48882 11.1742 6.39108 10.9819C6.29334 10.7895 6.24584 10.5756 6.253 10.36C6.23119 10.2057 6.26872 10.0488 6.358 9.921C6.50171 9.84923 6.61866 9.73332 6.69172 9.59026C6.76478 9.4472 6.79011 9.2845 6.764 9.126C6.73 8.926 6.701 8.726 6.676 8.532C6.67152 8.49625 6.67464 8.45995 6.68515 8.42549C6.69566 8.39102 6.71333 8.35917 6.737 8.332C6.76052 8.30532 6.78945 8.28394 6.82186 8.26929C6.85427 8.25464 6.88943 8.24704 6.925 8.247H17.125C17.1604 8.24717 17.1953 8.25482 17.2276 8.26945C17.2598 8.28409 17.2886 8.30537 17.312 8.33191C17.3354 8.35844 17.353 8.38963 17.3635 8.42343C17.374 8.45722 17.3772 8.49286 17.373 8.528C17.345 8.724 17.314 8.92367 17.28 9.127Z" fill="#6C7E93"/>
<path d="M21.143 18.7939L17.255 17.4939C17.1617 17.4625 17.0631 17.4499 16.9649 17.4566C16.8667 17.4633 16.7708 17.4894 16.6827 17.5332C16.5945 17.577 16.5159 17.6378 16.4513 17.7121C16.3866 17.7863 16.3373 17.8726 16.306 17.9659C16.2983 17.9893 16.2929 18.0134 16.29 18.0379C16.2861 18.0732 16.2747 18.1072 16.2566 18.1377C16.2385 18.1682 16.2141 18.1946 16.185 18.2149L12.857 20.5449C12.8245 20.5673 12.7979 20.5972 12.7793 20.632C12.7607 20.6668 12.7506 20.7055 12.75 20.7449V23.4999C12.75 23.5662 12.7763 23.6298 12.8232 23.6767C12.8701 23.7236 12.9337 23.7499 13 23.7499H19.5C19.6326 23.7499 19.7598 23.6972 19.8536 23.6035C19.9473 23.5097 20 23.3825 20 23.2499V20.3389C20 20.2992 20.0094 20.2601 20.0275 20.2247C20.0456 20.1894 20.0719 20.1589 20.1042 20.1357C20.1364 20.1126 20.1737 20.0974 20.213 20.0915C20.2523 20.0857 20.2924 20.0892 20.33 20.1019L20.637 20.2019H20.646C21.2361 20.4508 21.7327 20.8792 22.0655 21.4263C22.3983 21.9735 22.5503 22.6115 22.5 23.2499C22.5 23.4488 22.579 23.6396 22.7197 23.7803C22.8603 23.9209 23.0511 23.9999 23.25 23.9999C23.4489 23.9999 23.6397 23.9209 23.7803 23.7803C23.921 23.6396 24 23.4488 24 23.2499C24.0481 22.302 23.7985 21.3627 23.2862 20.5637C22.7739 19.7647 22.0245 19.1459 21.143 18.7939Z" fill="#6C7E93"/>
<path d="M11.25 20.7441C11.2494 20.7046 11.2393 20.6659 11.2207 20.6311C11.2021 20.5963 11.1755 20.5665 11.143 20.5441L7.815 18.2101C7.78603 18.1896 7.7617 18.1633 7.74361 18.1328C7.72551 18.1023 7.71406 18.0683 7.71 18.0331C7.70706 18.0086 7.7017 17.9845 7.694 17.9611C7.66284 17.8676 7.61355 17.7813 7.54894 17.707C7.48434 17.6327 7.4057 17.5718 7.31752 17.528C7.22935 17.4841 7.13339 17.4581 7.03514 17.4514C6.93689 17.4448 6.83829 17.4575 6.745 17.4891L2.833 18.8001C1.95638 19.1547 1.21228 19.774 0.704438 20.5717C0.196599 21.3694 -0.0496596 22.3057 -8.99658e-07 23.2501C-8.99658e-07 23.449 0.0790167 23.6397 0.219669 23.7804C0.360321 23.921 0.551087 24.0001 0.749999 24.0001C0.948911 24.0001 1.13968 23.921 1.28033 23.7804C1.42098 23.6397 1.5 23.449 1.5 23.2501C1.45041 22.617 1.6001 21.9843 1.92808 21.4406C2.25606 20.8969 2.74591 20.4694 3.329 20.2181H3.338L3.67 20.1001C3.70786 20.0873 3.74824 20.0837 3.78775 20.0898C3.82725 20.0958 3.86474 20.1112 3.89706 20.1347C3.92938 20.1582 3.9556 20.1891 3.97351 20.2249C3.99142 20.2606 4.0005 20.3001 4 20.3401V23.2501C4 23.3827 4.05268 23.5098 4.14645 23.6036C4.24021 23.6974 4.36739 23.7501 4.5 23.7501H11C11.0663 23.7501 11.1299 23.7237 11.1768 23.6768C11.2237 23.63 11.25 23.5664 11.25 23.5001V20.7441Z" fill="#6C7E93"/>
<path d="M12.792 12.8279C12.7219 12.8662 12.6482 12.8973 12.572 12.9209C12.3957 12.9744 12.2123 13.0011 12.028 12.9999C11.8416 13.001 11.6562 12.9737 11.478 12.9189C11.4011 12.8954 11.3267 12.8643 11.256 12.8259C11.17 12.7779 11.0754 12.7473 10.9775 12.7359C10.8797 12.7245 10.7806 12.7324 10.6858 12.7593C10.591 12.7862 10.5025 12.8315 10.4252 12.8926C10.348 12.9537 10.2835 13.0294 10.2355 13.1154C10.1875 13.2014 10.1569 13.2961 10.1455 13.3939C10.1341 13.4917 10.142 13.5909 10.1689 13.6856C10.1958 13.7804 10.2411 13.8689 10.3022 13.9462C10.3633 14.0234 10.439 14.0879 10.525 14.1359C10.6841 14.2238 10.8516 14.2955 11.025 14.3499C11.3489 14.4497 11.686 14.5003 12.025 14.4999H12.031C12.3676 14.5008 12.7023 14.4509 13.024 14.3519C13.1976 14.2968 13.3652 14.2241 13.524 14.1349C13.6136 14.0888 13.693 14.0251 13.7575 13.9476C13.8219 13.8701 13.8701 13.7804 13.8991 13.6839C13.9281 13.5873 13.9374 13.486 13.9263 13.3858C13.9153 13.2856 13.8842 13.1887 13.8348 13.1008C13.7854 13.0129 13.7189 12.9359 13.6391 12.8743C13.5593 12.8127 13.4679 12.7678 13.3704 12.7424C13.2729 12.7169 13.1712 12.7113 13.0715 12.726C12.9718 12.7407 12.876 12.7754 12.79 12.8279H12.792Z" fill="#6C7E93"/>
<path d="M11.129 10.5359C11.2642 10.3901 11.336 10.1966 11.3286 9.99786C11.3213 9.79915 11.2355 9.61145 11.09 9.47592C10.7261 9.16965 10.2657 9.00171 9.79001 9.00171C9.31434 9.00171 8.85395 9.16965 8.49001 9.47592C8.34414 9.61145 8.25808 9.79937 8.25077 9.99835C8.24345 10.1973 8.31548 10.3911 8.45101 10.5369C8.58653 10.6828 8.77445 10.7689 8.97343 10.7762C9.17241 10.7835 9.36614 10.7114 9.51201 10.5759C9.59668 10.527 9.69273 10.5013 9.79051 10.5013C9.88828 10.5013 9.98433 10.527 10.069 10.5759C10.2151 10.7109 10.4088 10.7825 10.6075 10.7752C10.8063 10.7679 10.9942 10.6823 11.13 10.5369L11.129 10.5359Z" fill="#6C7E93"/>
<path d="M12.91 9.4761C12.7641 9.61163 12.6781 9.79955 12.6708 9.99852C12.6635 10.1975 12.7355 10.3912 12.871 10.5371C13.0065 10.683 13.1945 10.769 13.3934 10.7763C13.5924 10.7837 13.7861 10.7116 13.932 10.5761C14.0167 10.5272 14.1127 10.5015 14.2105 10.5015C14.3083 10.5015 14.4043 10.5272 14.489 10.5761C14.6349 10.7116 14.8286 10.7837 15.0276 10.7763C15.2266 10.769 15.4145 10.683 15.55 10.5371C15.6855 10.3912 15.7576 10.1975 15.7502 9.99852C15.7429 9.79955 15.6569 9.61163 15.511 9.4761C15.147 9.16957 14.6864 9.00146 14.2105 9.00146C13.7346 9.00146 13.274 9.16957 12.91 9.4761Z" fill="#6C7E93"/>
</g>
<defs>
<clipPath id="clip0_113_3681">
<rect width="24" height="24" fill="white"/>
</clipPath>
</defs>
</svg>
