<svg width="24" height="24" viewBox="0 0 24 24" fill="none" xmlns="http://www.w3.org/2000/svg">
<g clip-path="url(#clip0_113_3698)">
<path d="M7.47 16.1001C5.38123 16.4608 3.40194 17.2922 1.682 18.5311C1.3849 18.7583 1.1447 19.0515 0.980349 19.3875C0.815999 19.7235 0.732006 20.0931 0.735002 20.4671V23.5101C0.73487 23.5744 0.747422 23.6381 0.771937 23.6975C0.796453 23.757 0.832452 23.811 0.877872 23.8565C0.923293 23.902 0.977245 23.9381 1.03664 23.9628C1.09603 23.9874 1.1597 24.0001 1.224 24.0001H22.776C22.8403 24.0001 22.904 23.9874 22.9634 23.9628C23.0228 23.9381 23.0767 23.902 23.1221 23.8565C23.1676 23.811 23.2036 23.757 23.2281 23.6975C23.2526 23.6381 23.2651 23.5744 23.265 23.5101V20.4671C23.268 20.0931 23.184 19.7235 23.0197 19.3875C22.8553 19.0515 22.6151 18.7583 22.318 18.5311C20.5981 17.2922 18.6188 16.4608 16.53 16.1001C16.4437 16.0832 16.3544 16.0901 16.2717 16.1203C16.189 16.1504 16.1162 16.2026 16.061 16.2711C15.948 16.4061 14.869 19.1001 12 19.1001C9.218 19.1001 8.025 16.3721 7.94 16.2701C7.88392 16.2024 7.81078 16.151 7.72814 16.1211C7.64551 16.0912 7.55638 16.084 7.47 16.1001Z" fill="#6C7E93"/>
<path d="M14.53 15.184C15.8052 14.6768 16.8991 13.7989 17.6704 12.6638C18.4417 11.5287 18.855 10.1884 18.857 8.816V6.857C18.857 5.03841 18.1346 3.29431 16.8486 2.00837C15.5627 0.722432 13.8186 0 12 0C10.1814 0 8.4373 0.722432 7.15137 2.00837C5.86543 3.29431 5.143 5.03841 5.143 6.857V8.816C5.14119 9.93556 5.41399 11.0385 5.93748 12.0281C6.46097 13.0178 7.21918 13.8639 8.14567 14.4924C9.07217 15.1209 10.1387 15.5127 11.2517 15.6332C12.3648 15.7538 13.4904 15.5995 14.53 15.184ZM7.1 8.816V7.1C7.1 7.06783 7.10634 7.03597 7.11865 7.00624C7.13096 6.97652 7.14901 6.94951 7.17176 6.92676C7.19451 6.90401 7.22152 6.88596 7.25124 6.87365C7.28097 6.86134 7.31282 6.855 7.345 6.855H8.08C9.339 6.855 11.889 7.165 13.78 5.103C13.8028 5.07784 13.8305 5.05772 13.8615 5.04394C13.8925 5.03017 13.9261 5.02303 13.96 5.023C13.994 5.0232 14.0277 5.0304 14.0588 5.04416C14.09 5.05793 14.1179 5.07796 14.141 5.103C14.8348 5.86481 15.7401 6.40238 16.741 6.647C16.7867 6.65867 16.8272 6.68509 16.8563 6.72216C16.8854 6.75923 16.9015 6.80487 16.902 6.852V8.816C16.902 10.1156 16.3858 11.3619 15.4668 12.2808C14.5479 13.1998 13.3016 13.716 12.002 13.716C10.7024 13.716 9.4561 13.1998 8.53718 12.2808C7.61825 11.3619 7.102 10.1156 7.102 8.816H7.1Z" fill="#6C7E93"/>
<path d="M13.959 10.0411C14.5002 10.0411 14.939 9.60229 14.939 9.06105C14.939 8.51982 14.5002 8.08105 13.959 8.08105C13.4178 8.08105 12.979 8.51982 12.979 9.06105C12.979 9.60229 13.4178 10.0411 13.959 10.0411Z" fill="#6C7E93"/>
<path d="M10.041 10.0411C10.5822 10.0411 11.021 9.60229 11.021 9.06105C11.021 8.51982 10.5822 8.08105 10.041 8.08105C9.49977 8.08105 9.061 8.51982 9.061 9.06105C9.061 9.60229 9.49977 10.0411 10.041 10.0411Z" fill="#6C7E93"/>
<path d="M12.08 12.6069C12.3665 12.6074 12.6515 12.566 12.926 12.4839C13.0739 12.4394 13.217 12.3801 13.353 12.3069C13.4759 12.2406 13.5731 12.1352 13.6292 12.0074C13.6853 11.8795 13.697 11.7366 13.6625 11.6013C13.628 11.466 13.5493 11.3461 13.4389 11.2607C13.3284 11.1753 13.1926 11.1293 13.053 11.1299H11.1C10.96 11.1288 10.8238 11.1747 10.7129 11.2602C10.6021 11.3456 10.5231 11.4658 10.4886 11.6014C10.454 11.737 10.4659 11.8803 10.5224 12.0084C10.5788 12.1364 10.6766 12.2419 10.8 12.3079C10.9358 12.3806 11.0785 12.4396 11.226 12.4839C11.5014 12.5665 11.7875 12.6082 12.075 12.6079L12.08 12.6069Z" fill="#6C7E93"/>
</g>
<defs>
<clipPath id="clip0_113_3698">
<rect width="24" height="24" fill="white"/>
</clipPath>
</defs>
</svg>
