<svg width="59" height="59" viewBox="0 0 59 59" fill="none" xmlns="http://www.w3.org/2000/svg">
<path d="M29.5 0.333496C13.4 0.333496 0.333374 13.4002 0.333374 29.5002C0.333374 45.6002 13.4 58.6668 29.5 58.6668C45.6 58.6668 58.6667 45.6002 58.6667 29.5002C58.6667 13.4002 45.6 0.333496 29.5 0.333496ZM29.5 52.8335C16.6375 52.8335 6.16671 42.3627 6.16671 29.5002C6.16671 16.6377 16.6375 6.16683 29.5 6.16683C42.3625 6.16683 52.8334 16.6377 52.8334 29.5002C52.8334 42.3627 42.3625 52.8335 29.5 52.8335ZM42.8875 16.6085L23.6667 35.8293L16.1125 28.3043L12 32.4168L23.6667 44.0835L47 20.7502L42.8875 16.6085Z" fill="#10A731"/>
</svg>
